<svg width="23" height="17" viewBox="0 0 23 17" fill="none" xmlns="http://www.w3.org/2000/svg">
    <path fill-rule="evenodd" clip-rule="evenodd" d="M0.436149 9.55935C-0.148911 8.97429 -0.141844 8.01866 0.436149 7.44066L7.16672 0.710093C7.55889 0.317923 8.32572 7.62939e-06 8.88429 7.62939e-06L19.5049 0C21.4367 0 23.0028 1.56885 23.0028 3.5018V13.4982C23.0028 15.4322 21.4258 17 19.5049 17L8.88429 17C8.32787 17 7.55397 16.6772 7.16672 16.2899L0.436149 9.55935ZM15.1213 8.4777L17.9455 5.65357C18.2388 5.36026 18.2426 4.8815 17.9497 4.58861C17.6548 4.29367 17.1801 4.29764 16.8848 4.59291L14.0607 7.41704L11.2365 4.59291C10.9432 4.29959 10.4645 4.29572 10.1716 4.58861C9.87664 4.88354 9.8806 5.3583 10.1759 5.65357L13 8.4777L10.1759 11.3018C9.88256 11.5951 9.87868 12.0739 10.1716 12.3668C10.4665 12.6617 10.9413 12.6578 11.2365 12.3625L14.0607 9.53836L16.8848 12.3625C17.1781 12.6558 17.6569 12.6597 17.9497 12.3668C18.2447 12.0718 18.2407 11.5971 17.9455 11.3018L15.1213 8.4777ZM2.08652 9.20973C1.69456 8.81776 1.69577 8.18104 2.08652 7.79029L8.02005 1.85676C8.21708 1.65973 8.60244 1.50001 8.87055 1.50001L19.5 1.5C20.6061 1.5 21.5028 2.39706 21.5028 3.50586V13.4941C21.5028 14.6019 20.6092 15.5 19.5 15.5L8.87055 15.5C8.59786 15.5 8.21745 15.3407 8.02005 15.1433L2.08652 9.20973Z" fill="black"/>
</svg>
